<svg width="94" height="81" viewBox="0 0 94 81" fill="none" xmlns="http://www.w3.org/2000/svg">
<path d="M73.5431 1.86219H29.3264C14.6957 1.86219 8.80468 5.19708 0 17.7669C9.78298 17.7669 19.832 17.8351 29.3066 17.9216C13.2514 24.9284 4.46655 38.3388 4.46655 51.6285C4.46655 73.8175 26.0897 81.5141 46.0939 80.5515L55.8689 67.0047V81C56.9041 80.3587 62.5369 73.5604 66.6156 67.8532C71.4065 61.1834 72.6363 57.977 72.6363 50.986V18.1472C79.6366 17.582 84.4077 15.1073 88.4969 9.55618C90.7633 6.47832 92.8351 3.20769 94 0C87.3968 1.47533 84.9372 1.85957 73.5431 1.85957V1.86219ZM21.4286 43.3562C21.4286 34.3312 25.9865 25.1946 32.8584 17.9557C37.9603 18.0055 42.8598 18.058 47.415 18.1065C45.1672 20.1182 41.8577 23.3993 39.1015 26.2962C34.5052 31.1064 33.0808 33.4788 33.0808 40.2128V62.3401C24.8361 58.4308 21.4272 50.8312 21.4272 43.3562H21.4286ZM61.8896 26.2962C57.2933 31.0422 55.8689 33.4788 55.8689 40.2128V64.4331C52.6269 64.8553 49.5517 65.0311 46.6115 65.0311C42.2429 65.0311 38.5216 64.3977 35.3868 63.2882C37.6651 60.6654 41.0951 56.3509 43.8288 52.5255C48.6197 45.8558 49.8495 42.6494 49.8495 35.6583V18.1314C57.7209 18.2141 64.4326 18.2796 69.2063 18.2796C69.4803 18.2796 69.7504 18.277 70.0191 18.2731C67.7766 20.2952 64.573 23.4767 61.8909 26.2962H61.8896Z" fill="#000000"/>
</svg>
